<?xml version="1.0" standalone="no"?>
<!DOCTYPE svg PUBLIC "-//W3C//DTD SVG 20010904//EN"
 "http://www.w3.org/TR/2001/REC-SVG-20010904/DTD/svg10.dtd">
<svg version="1.0" xmlns="http://www.w3.org/2000/svg"
 width="512.000000pt" height="512.000000pt" viewBox="0 0 512.000000 512.000000"
 preserveAspectRatio="xMidYMid meet">

<g transform="translate(0.000000,512.000000) scale(0.100000,-0.100000)"
fill="#000000" stroke="none">
<path d="M1021 2978 c-19 -5 -45 -8 -58 -5 -12 2 -20 1 -18 -4 3 -4 -12 -13
-32 -20 -21 -6 -51 -20 -67 -30 -16 -10 -34 -15 -39 -12 -6 3 -7 1 -3 -5 4 -7
2 -12 -3 -12 -22 0 -26 -2 -43 -17 -10 -9 -18 -22 -18 -30 0 -7 -4 -13 -10
-13 -5 0 -9 -3 -8 -7 2 -5 -13 -39 -32 -78 -34 -68 -35 -74 -35 -186 0 -113 1
-118 35 -183 35 -69 98 -146 118 -146 7 0 12 -4 12 -8 0 -9 69 -45 108 -57 12
-3 20 -9 18 -13 -4 -7 37 -11 119 -10 111 1 131 4 144 16 7 7 20 11 27 8 8 -3
14 -2 14 2 0 4 16 18 36 31 42 29 134 116 134 127 0 4 6 15 14 23 38 44 63
198 46 290 -29 160 -164 298 -325 331 -86 18 -99 19 -134 8z"/>
<path d="M2487 2978 c2 -5 -9 -8 -26 -8 -16 0 -32 -4 -36 -9 -3 -5 -19 -12
-35 -16 -17 -4 -30 -10 -30 -15 0 -5 -9 -12 -21 -15 -33 -11 -125 -106 -149
-155 -12 -25 -26 -53 -31 -62 -5 -10 -9 -27 -9 -38 0 -11 -3 -20 -7 -20 -5 0
-8 -38 -8 -85 0 -47 4 -85 9 -85 4 0 6 -9 3 -19 -3 -12 1 -22 9 -25 8 -3 14
-11 14 -18 0 -17 37 -87 56 -105 7 -8 17 -19 21 -26 5 -7 25 -26 45 -44 20
-17 34 -33 31 -36 -3 -3 4 -3 16 0 12 3 21 1 21 -6 0 -6 5 -11 11 -11 6 0 25
-6 42 -14 48 -22 197 -39 213 -25 8 6 25 9 39 7 13 -3 22 -2 20 3 -3 4 12 13
32 20 66 21 133 71 177 131 11 15 24 24 29 21 6 -3 7 -1 4 4 -4 6 0 24 8 39 8
16 15 35 15 42 0 7 6 15 14 18 8 3 11 15 8 30 -2 13 1 30 7 38 21 25 -17 227
-52 273 -5 7 -5 18 -1 24 4 8 3 9 -4 5 -7 -4 -12 -3 -12 2 0 32 -156 152 -198
152 -7 0 -15 7 -18 15 -4 8 -9 13 -13 11 -3 -2 -49 -1 -103 3 -53 3 -94 3 -91
-1z"/>
<path d="M3995 2975 c-69 -13 -138 -35 -151 -48 -4 -4 -15 -7 -24 -7 -42 0
-139 -96 -143 -140 -1 -11 -4 -20 -8 -20 -4 0 -5 -8 -2 -19 3 -10 0 -22 -6
-25 -6 -4 -11 -16 -11 -27 0 -11 -3 -18 -8 -15 -4 2 -6 -14 -4 -36 3 -22 -1
-45 -7 -51 -14 -14 -14 -67 0 -67 7 0 10 -15 7 -39 -2 -22 -1 -38 2 -36 3 2
12 -16 19 -41 7 -24 17 -44 21 -44 5 0 11 -8 15 -19 8 -28 98 -116 144 -142
22 -12 39 -25 37 -28 -2 -3 6 -7 17 -8 42 -4 92 -16 103 -24 7 -6 42 -5 84 1
40 6 82 8 92 4 12 -4 18 -1 16 8 -2 9 8 13 28 13 18 0 48 12 70 28 21 15 36
27 32 27 -4 0 22 29 58 65 35 36 62 70 59 75 -3 6 -2 10 4 10 6 0 8 7 5 15 -4
8 0 23 7 32 19 22 20 274 2 281 -7 2 -13 13 -13 24 0 33 -101 168 -127 168 -7
0 -13 4 -13 8 0 10 -72 46 -120 60 -19 6 -51 15 -71 21 -19 6 -37 10 -40 10
-2 -1 -35 -7 -74 -14z"/>
</g>
</svg>
